<svg width="100" height="100" viewBox="0 0 100 100" fill="none" xmlns="http://www.w3.org/2000/svg">
<path d="M10.8475 64.9015V42.5885H2V34.6905H29.8804V42.5885H21.0329V64.9015H10.8475Z" fill="white"/>
<path d="M47.9868 65.592C45.5123 65.592 43.2249 65.2036 41.1245 64.4268C39.0529 63.6499 37.2547 62.5566 35.7297 61.1467C34.2048 59.7081 33.0107 58.0249 32.1476 56.0972C31.3132 54.1694 30.896 52.069 30.896 49.796C30.896 47.4942 31.3132 45.3939 32.1476 43.4949C33.0107 41.5671 34.2048 39.8983 35.7297 38.4885C37.2547 37.0499 39.0529 35.9421 41.1245 35.1653C43.2249 34.3884 45.4979 34 47.9436 34C50.418 34 52.691 34.3884 54.7626 35.1653C56.8343 35.9421 58.6325 37.0499 60.1575 38.4885C61.6824 39.8983 62.8621 41.5671 63.6965 43.4949C64.5596 45.3939 64.9912 47.4942 64.9912 49.796C64.9912 52.069 64.5596 54.1694 63.6965 56.0972C62.8621 58.0249 61.6824 59.7081 60.1575 61.1467C58.6325 62.5566 56.8343 63.6499 54.7626 64.4268C52.691 65.2036 50.4324 65.592 47.9868 65.592ZM47.9436 57.3488C48.8931 57.3488 49.7706 57.1761 50.5763 56.8309C51.4107 56.4856 52.13 55.9965 52.7342 55.3635C53.3672 54.7017 53.8563 53.9105 54.2016 52.9897C54.5469 52.0403 54.7195 50.9757 54.7195 49.796C54.7195 48.6164 54.5469 47.5662 54.2016 46.6454C53.8563 45.696 53.3672 44.9047 52.7342 44.2717C52.13 43.61 51.4107 43.1064 50.5763 42.7612C49.7706 42.4159 48.8931 42.2433 47.9436 42.2433C46.9941 42.2433 46.1022 42.4159 45.2678 42.7612C44.4621 43.1064 43.7428 43.61 43.1098 44.2717C42.5056 44.9047 42.0309 45.696 41.6856 46.6454C41.3403 47.5662 41.1677 48.6164 41.1677 49.796C41.1677 50.9757 41.3403 52.0403 41.6856 52.9897C42.0309 53.9105 42.5056 54.7017 43.1098 55.3635C43.7428 55.9965 44.4621 56.4856 45.2678 56.8309C46.1022 57.1761 46.9941 57.3488 47.9436 57.3488Z" fill="white"/>
<path fill-rule="evenodd" clip-rule="evenodd" d="M68.688 64.9015V34.6905H83.2324C86.0521 34.6905 88.4834 35.1509 90.5262 36.0716C92.5978 36.9923 94.1947 38.3159 95.3168 40.0422C96.4389 41.7398 97 43.7538 97 46.0844C97 48.4149 96.4389 50.429 95.3168 52.1266C94.1947 53.8241 92.5978 55.1477 90.5262 56.0972C88.4834 57.0179 86.0521 57.4782 83.2324 57.4782H78.8734V64.9015H68.688ZM85.6925 48.6739C85.0307 49.3069 83.9949 49.6234 82.5851 49.6234H78.8734V42.5454H82.5851C83.9949 42.5454 85.0307 42.8619 85.6925 43.4949C86.383 44.1279 86.7283 44.991 86.7283 46.0844C86.7283 47.1777 86.383 48.0409 85.6925 48.6739Z" fill="white"/>
</svg>
