<svg width="100" height="100" viewBox="0 0 100 100" fill="none" xmlns="http://www.w3.org/2000/svg">
<path d="M47.7358 65.7174C45.3579 65.7174 43.1478 65.3397 41.1056 64.5843C39.0913 63.829 37.3428 62.7659 35.8601 61.3951C34.3774 59.9963 33.2164 58.3597 32.3772 56.4854C31.5659 54.611 31.1602 52.5688 31.1602 50.3587C31.1602 48.1206 31.5659 46.0784 32.3772 44.232C33.2164 42.3576 34.3774 40.735 35.8601 39.3642C37.3428 37.9654 39.0913 36.8884 41.1056 36.133C43.1478 35.3777 45.3579 35 47.7358 35C50.1417 35 52.3518 35.3777 54.3661 36.133C56.3803 36.8884 58.1288 37.9654 59.6115 39.3642C61.0943 40.735 62.2413 42.3576 63.0526 44.232C63.8918 46.0784 64.3115 48.1206 64.3115 50.3587C64.3115 52.5688 63.8918 54.611 63.0526 56.4854C62.2413 58.3597 61.0943 59.9963 59.6115 61.3951C58.1288 62.7659 56.3803 63.829 54.3661 64.5843C52.3518 65.3397 50.1417 65.7174 47.7358 65.7174ZM47.7358 57.7023C48.659 57.7023 49.5123 57.5345 50.2956 57.1988C51.1069 56.863 51.8063 56.3875 52.3938 55.772C53.0093 55.1285 53.4848 54.3592 53.8206 53.464C54.1563 52.5408 54.3241 51.5057 54.3241 50.3587C54.3241 49.2117 54.1563 48.1906 53.8206 47.2953C53.4848 46.3721 53.0093 45.6028 52.3938 44.9873C51.8063 44.3439 51.1069 43.8543 50.2956 43.5186C49.5123 43.1829 48.659 43.015 47.7358 43.015C46.8126 43.015 45.9454 43.1829 45.1341 43.5186C44.3508 43.8543 43.6514 44.3439 43.0359 44.9873C42.4484 45.6028 41.9868 46.3721 41.6511 47.2953C41.3154 48.1906 41.1475 49.2117 41.1475 50.3587C41.1475 51.5057 41.3154 52.5408 41.6511 53.464C41.9868 54.3592 42.4484 55.1285 43.0359 55.772C43.6514 56.3875 44.3508 56.863 45.1341 57.1988C45.9454 57.5345 46.8126 57.7023 47.7358 57.7023Z" fill="white"/>
<path d="M67.8757 65.0459V35.6714H96.2851V65.0459H86.5496V43.3508H77.6376L77.6113 65.0459H67.8757Z" fill="white"/>
<path d="M11.6025 43.3508H3V35.6714H29.9406V43.3508H21.3381V65.0459H11.6025V43.3508Z" fill="white"/>
</svg>
